<?xml version="1.0" encoding="iso-8859-1"?>
<!-- Generator: Adobe Illustrator 19.0.0, SVG Export Plug-In . SVG Version: 6.00 Build 0)  -->
<svg version="1.1" id="Layer_1" xmlns="http://www.w3.org/2000/svg" xmlns:xlink="http://www.w3.org/1999/xlink" x="0px" y="0px"
	 viewBox="0 0 512 512" style="enable-background:new 0 0 512 512;" xml:space="preserve">
<path style="fill:#D6C9AD;" d="M146.264,48.065V4.312c0-2.381,1.93-4.312,4.31-4.312h220.701c2.38,0,4.31,1.93,4.31,4.312v43.754
	H146.264V48.065z"/>
<path style="fill:#F6F1DD;" d="M146.264,43.899l-51.742,75.056c-0.992,1.44-1.524,3.147-1.524,4.896v383.833
	c0,2.381,1.93,4.312,4.31,4.312h229.151v-388.32c0-1.639,0.467-3.245,1.347-4.628l47.779-75.149L146.264,43.899L146.264,43.899z"/>
<path style="fill:#D6C9AD;" d="M354.035,43.899l-47.78,75.149c-0.879,1.383-1.347,2.989-1.347,4.628v388.32h21.55v-388.32
	c0-1.639,0.467-3.245,1.347-4.628l47.779-75.149C375.584,43.899,354.035,43.899,354.035,43.899z"/>
<path style="fill:#C2AE86;" d="M418.998,123.42v384.27c0,2.38-1.92,4.31-4.31,4.31h-88.23V123.68c0-1.64,0.47-3.25,1.34-4.64
	l47.79-75.14l42.3,75.29C418.628,120.49,418.998,121.94,418.998,123.42z"/>
<path style="fill:#A89774;" d="M375.585,43.899l-11.44,17.993l32.201,57.306c0.725,1.29,1.106,2.745,1.106,4.225v388.573h17.24
	c2.38,0,4.31-1.93,4.31-4.312V123.423c0-1.48-0.381-2.935-1.106-4.225L375.585,43.899z"/>
<polygon style="fill:#73CBD1;" points="326.456,237.676 326.456,326.063 93.692,326.063 92.998,237.676 "/>
<rect x="304.91" y="237.68" style="fill:#47B5BF;" width="21.55" height="88.39"/>
<ellipse style="fill:#F6CC65;" cx="203.61" cy="277.95" rx="71.815" ry="71.841"/>
<path style="fill:#854437;" d="M232.918,295.656c-9.978,22.97-27.282,34.988-43.078,33.641c-2.995-0.248-5.937-0.981-8.76-2.21
	c-2.521-1.099-4.816-2.522-6.864-4.247c-12.359-10.434-15.721-31.658-5.538-55.102c9.935-22.873,29.62-40.594,46.171-41.229
	c3.222-0.129,6.314,0.399,9.202,1.649c2.489,1.078,4.698,2.652,6.605,4.635C242.335,244.898,243.111,272.179,232.918,295.656z"/>
<g>
	<rect x="167.18" style="fill:#A89774;" width="16.16" height="43.899"/>
	<rect x="195.74" style="fill:#A89774;" width="16.16" height="43.899"/>
	<rect x="224.29" style="fill:#A89774;" width="16.16" height="43.899"/>
	<rect x="252.84" style="fill:#A89774;" width="16.16" height="43.899"/>
	<rect x="281.4" style="fill:#A89774;" width="16.16" height="43.899"/>
	<rect x="309.95" style="fill:#A89774;" width="16.16" height="43.899"/>
	<rect x="338.5" style="fill:#A89774;" width="16.16" height="43.899"/>
</g>
<path style="fill:#572F26;" d="M230.655,232.793c-0.216,0.323-0.463,0.625-0.733,0.916c-0.313,0.345-18.35,19.876-19.255,44.172
	c-0.916,24.242-14.697,43.849-20.828,51.416c-2.995-0.248-5.937-0.981-8.76-2.21c-2.521-1.099-4.816-2.522-6.864-4.247
	c0.28-0.464,0.614-0.895,1.002-1.304c0.172-0.183,18.371-19.876,19.298-44.269c0.894-23.649,13.997-42.814,20.332-50.758
	c3.222-0.129,6.314,0.399,9.202,1.649C226.539,229.236,228.748,230.81,230.655,232.793z"/>
<path style="fill:#A89774;" d="M375.588,101.45V512h-15V101.45c0-4.14,3.36-7.5,7.5-7.5C372.228,93.95,375.588,97.31,375.588,101.45
	z"/>
<path style="fill:#D6C9AD;" d="M271.541,129.857H133.329c-4.142,0-7.5-3.358-7.5-7.5s3.358-7.5,7.5-7.5h138.212
	c4.142,0,7.5,3.358,7.5,7.5S275.683,129.857,271.541,129.857z"/>
<g>
</g>
<g>
</g>
<g>
</g>
<g>
</g>
<g>
</g>
<g>
</g>
<g>
</g>
<g>
</g>
<g>
</g>
<g>
</g>
<g>
</g>
<g>
</g>
<g>
</g>
<g>
</g>
<g>
</g>
</svg>
