<svg xmlns="http://www.w3.org/2000/svg" height="480pt" version="1.1" viewBox="0 -31 480 479" width="480pt">
<g id="surface1">
<path d="M 312 112.5 L 312 32.5 L 24 32.5 L 24 288.5 L 312 288.5 Z M 80 160.5 L 48 160.5 L 48 120.5 L 48 160.5 Z M 160 200.5 L 112 152.5 L 112 120.5 L 144 120.5 C 152.835938 120.5 160 127.664062 160 136.5 C 160 145.335938 152.835938 152.5 144 152.5 L 112 152.5 Z M 216 160.5 L 184 160.5 L 184 200.5 L 184 120.5 L 184 160.5 Z M 280 160.5 L 248 160.5 L 248 200.5 L 248 120.5 L 248 160.5 Z M 280 160.5 " style=" stroke:none;fill-rule:nonzero;fill:rgb(100%,18.823529%,31.764706%);fill-opacity:1;" />
<path d="M 344 136.5 L 376 136.5 L 416 192.5 L 344 192.5 Z M 392 104.5 L 312 104.5 L 312 288.5 L 456 288.5 L 456 200.5 Z M 392 104.5 " style=" stroke:none;fill-rule:nonzero;fill:rgb(100%,85.490196%,26.666667%);fill-opacity:1;" />
<path d="M 328 32.5 L 328 0.5 L 8 0.5 L 8 32.5 Z M 328 32.5 " style=" stroke:none;fill-rule:nonzero;fill:rgb(67.058824%,13.72549%,0%);fill-opacity:1;" />
<path d="M 312 288.5 L 8 288.5 L 8 352.5 L 80 352.5 C 80 330.410156 97.910156 312.5 120 312.5 C 142.089844 312.5 160 330.410156 160 352.5 L 352 352.5 C 352 330.410156 369.910156 312.5 392 312.5 C 414.089844 312.5 432 330.410156 432 352.5 L 472 352.5 L 472 288.5 Z M 312 288.5 " style=" stroke:none;fill-rule:nonzero;fill:rgb(67.45098%,67.058824%,69.411765%);fill-opacity:1;" />
<path d="M 392 312.5 C 369.910156 312.5 352 330.410156 352 352.5 C 351.980469 355.1875 352.25 357.871094 352.800781 360.5 C 356.585938 379.144531 372.976562 392.539062 392 392.539062 C 411.023438 392.539062 427.414062 379.144531 431.199219 360.5 C 431.75 357.871094 432.019531 355.1875 432 352.5 C 432 330.410156 414.089844 312.5 392 312.5 Z M 392 312.5 " style=" stroke:none;fill-rule:nonzero;fill:rgb(47.058824%,46.27451%,50.196078%);fill-opacity:1;" />
<path d="M 120 312.5 C 97.910156 312.5 80 330.410156 80 352.5 C 79.980469 355.1875 80.25 357.871094 80.800781 360.5 C 84.585938 379.144531 100.976562 392.539062 120 392.539062 C 139.023438 392.539062 155.414062 379.144531 159.199219 360.5 C 159.75 357.871094 160.019531 355.1875 160 352.5 C 160 330.410156 142.089844 312.5 120 312.5 Z M 120 312.5 " style=" stroke:none;fill-rule:nonzero;fill:rgb(47.058824%,46.27451%,50.196078%);fill-opacity:1;" />
<path d="M 376 136.5 L 344 136.5 L 344 192.5 L 416 192.5 Z M 376 136.5 " style=" stroke:none;fill-rule:nonzero;fill:rgb(77.647059%,77.254902%,79.215686%);fill-opacity:1;" />
<path d="M 160 136.5 C 160 127.664062 152.835938 120.5 144 120.5 L 112 120.5 L 112 152.5 L 144 152.5 C 152.835938 152.5 160 145.335938 160 136.5 Z M 160 136.5 " style=" stroke:none;fill-rule:nonzero;fill:rgb(100%,18.823529%,31.764706%);fill-opacity:1;" />
<path d="M 392 400.5 C 369.199219 400.46875 349.550781 384.433594 344.953125 362.101562 C 344.296875 358.941406 343.976562 355.726562 344 352.5 C 344 325.992188 365.492188 304.5 392 304.5 C 418.507812 304.5 440 325.992188 440 352.5 C 440.019531 355.757812 439.691406 359.007812 439.023438 362.195312 C 434.398438 384.488281 414.769531 400.480469 392 400.5 Z M 392 320.5 C 374.328125 320.5 360 334.828125 360 352.5 C 359.980469 354.617188 360.1875 356.730469 360.617188 358.804688 C 363.59375 373.753906 376.699219 384.527344 391.9375 384.554688 C 407.179688 384.585938 420.328125 373.859375 423.359375 358.925781 C 423.800781 356.8125 424.015625 354.65625 424 352.5 C 424 334.828125 409.671875 320.5 392 320.5 Z M 392 320.5 " style=" stroke:none;fill-rule:nonzero;fill:rgb(34.117647%,33.72549%,36.078431%);fill-opacity:1;" />
<path d="M 120 400.5 C 97.199219 400.46875 77.550781 384.433594 72.953125 362.101562 C 72.296875 358.941406 71.976562 355.726562 72 352.5 C 72 325.992188 93.492188 304.5 120 304.5 C 146.507812 304.5 168 325.992188 168 352.5 C 168.019531 355.757812 167.691406 359.007812 167.023438 362.195312 C 162.398438 384.488281 142.769531 400.480469 120 400.5 Z M 120 320.5 C 102.328125 320.5 88 334.828125 88 352.5 C 87.980469 354.617188 88.1875 356.730469 88.617188 358.804688 C 91.59375 373.753906 104.699219 384.527344 119.9375 384.554688 C 135.179688 384.585938 148.328125 373.859375 151.359375 358.925781 C 151.800781 356.8125 152.015625 354.65625 152 352.5 C 152 334.828125 137.671875 320.5 120 320.5 Z M 120 320.5 " style=" stroke:none;fill-rule:nonzero;fill:rgb(34.117647%,33.72549%,36.078431%);fill-opacity:1;" />
<path d="M 456 224.5 L 456 240.5 L 344 240.5 C 339.582031 240.5 336 236.917969 336 232.5 C 336 228.082031 339.582031 224.5 344 224.5 Z M 456 224.5 " style=" stroke:none;fill-rule:nonzero;fill:rgb(92.941176%,10.980392%,14.117647%);fill-opacity:1;" />
<path d="M 48 208.5 C 43.582031 208.5 40 204.917969 40 200.5 L 40 120.5 C 40 116.082031 43.582031 112.5 48 112.5 L 88 112.5 C 92.417969 112.5 96 116.082031 96 120.5 C 96 124.917969 92.417969 128.5 88 128.5 L 56 128.5 L 56 200.5 C 56 204.917969 52.417969 208.5 48 208.5 Z M 48 208.5 " style=" stroke:none;fill-rule:nonzero;fill:rgb(94.509804%,94.901961%,94.901961%);fill-opacity:1;" />
<path d="M 80 168.5 L 48 168.5 C 43.582031 168.5 40 164.917969 40 160.5 C 40 156.082031 43.582031 152.5 48 152.5 L 80 152.5 C 84.417969 152.5 88 156.082031 88 160.5 C 88 164.917969 84.417969 168.5 80 168.5 Z M 80 168.5 " style=" stroke:none;fill-rule:nonzero;fill:rgb(94.509804%,94.901961%,94.901961%);fill-opacity:1;" />
<path d="M 144 160.5 L 112 160.5 C 107.582031 160.5 104 156.917969 104 152.5 L 104 120.5 C 104 116.082031 107.582031 112.5 112 112.5 L 144 112.5 C 157.253906 112.5 168 123.246094 168 136.5 C 168 149.753906 157.253906 160.5 144 160.5 Z M 120 144.5 L 144 144.5 C 148.417969 144.5 152 140.917969 152 136.5 C 152 132.082031 148.417969 128.5 144 128.5 L 120 128.5 Z M 120 144.5 " style=" stroke:none;fill-rule:nonzero;fill:rgb(94.509804%,94.901961%,94.901961%);fill-opacity:1;" />
<path d="M 160 208.5 C 157.878906 208.5 155.84375 207.65625 154.34375 206.15625 L 120 171.8125 L 120 200.5 C 120 204.917969 116.417969 208.5 112 208.5 C 107.582031 208.5 104 204.917969 104 200.5 L 104 152.5 C 104 149.265625 105.949219 146.347656 108.9375 145.109375 C 111.925781 143.871094 115.367188 144.558594 117.65625 146.84375 L 165.65625 194.84375 C 167.941406 197.132812 168.628906 200.574219 167.390625 203.5625 C 166.152344 206.550781 163.234375 208.5 160 208.5 Z M 160 208.5 " style=" stroke:none;fill-rule:nonzero;fill:rgb(94.509804%,94.901961%,94.901961%);fill-opacity:1;" />
<path d="M 224 208.5 L 184 208.5 C 179.582031 208.5 176 204.917969 176 200.5 L 176 120.5 C 176 116.082031 179.582031 112.5 184 112.5 L 224 112.5 C 228.417969 112.5 232 116.082031 232 120.5 C 232 124.917969 228.417969 128.5 224 128.5 L 192 128.5 L 192 192.5 L 224 192.5 C 228.417969 192.5 232 196.082031 232 200.5 C 232 204.917969 228.417969 208.5 224 208.5 Z M 224 208.5 " style=" stroke:none;fill-rule:nonzero;fill:rgb(94.509804%,94.901961%,94.901961%);fill-opacity:1;" />
<path d="M 216 168.5 L 184 168.5 C 179.582031 168.5 176 164.917969 176 160.5 C 176 156.082031 179.582031 152.5 184 152.5 L 216 152.5 C 220.417969 152.5 224 156.082031 224 160.5 C 224 164.917969 220.417969 168.5 216 168.5 Z M 216 168.5 " style=" stroke:none;fill-rule:nonzero;fill:rgb(94.509804%,94.901961%,94.901961%);fill-opacity:1;" />
<path d="M 288 208.5 L 248 208.5 C 243.582031 208.5 240 204.917969 240 200.5 L 240 120.5 C 240 116.082031 243.582031 112.5 248 112.5 L 288 112.5 C 292.417969 112.5 296 116.082031 296 120.5 C 296 124.917969 292.417969 128.5 288 128.5 L 256 128.5 L 256 192.5 L 288 192.5 C 292.417969 192.5 296 196.082031 296 200.5 C 296 204.917969 292.417969 208.5 288 208.5 Z M 288 208.5 " style=" stroke:none;fill-rule:nonzero;fill:rgb(94.509804%,94.901961%,94.901961%);fill-opacity:1;" />
<path d="M 280 168.5 L 248 168.5 C 243.582031 168.5 240 164.917969 240 160.5 C 240 156.082031 243.582031 152.5 248 152.5 L 280 152.5 C 284.417969 152.5 288 156.082031 288 160.5 C 288 164.917969 284.417969 168.5 280 168.5 Z M 280 168.5 " style=" stroke:none;fill-rule:nonzero;fill:rgb(94.509804%,94.901961%,94.901961%);fill-opacity:1;" />
<path d="M 472 416.5 L 8 416.5 C 3.582031 416.5 0 412.917969 0 408.5 C 0 404.082031 3.582031 400.5 8 400.5 L 472 400.5 C 476.417969 400.5 480 404.082031 480 408.5 C 480 412.917969 476.417969 416.5 472 416.5 Z M 472 416.5 " style=" stroke:none;fill-rule:nonzero;fill:rgb(34.117647%,33.72549%,36.078431%);fill-opacity:1;" />
</g>
</svg>